<svg width="65" height="73" viewBox="0 0 65 73" fill="none" xmlns="http://www.w3.org/2000/svg">
<path d="M21.6242 25.1102H0.695633V18.9102H63.9813V25.1102H43.0528H42.5528V25.6102V71.9102H36.4099V50.8102V50.3102H35.9099H28.7671H28.2671V50.8102V71.9102H22.1242V25.6102V25.1102H21.6242ZM32.3385 0.910156C34.099 0.910156 35.7882 1.61507 37.0343 2.87113C38.2805 4.12732 38.9813 5.83193 38.9813 7.61016C38.9813 9.38839 38.2805 11.093 37.0343 12.3492C35.7882 13.6052 34.099 14.3102 32.3385 14.3102C30.578 14.3102 28.8888 13.6052 27.6427 12.3492C26.3965 11.093 25.6956 9.38839 25.6956 7.61016C25.6956 3.88653 28.6541 0.910156 32.3385 0.910156Z" fill="#EC5863" stroke="black"/>
</svg>
